<svg width="80" height="80" viewBox="0 0 80 80" fill="none" xmlns="http://www.w3.org/2000/svg">
<rect width="80" height="80" fill="white"/>
<path fill-rule="evenodd" clip-rule="evenodd" d="M0 13.3051V26.6102H13.3051H26.6102V13.3051V0H13.3051H0V13.3051ZM34.2373 1.86441V3.72881H32.3729H30.5085V7.54237V11.3559H32.3729H34.2373V13.2203V15.0847H36.1017H37.9661V7.54237V0H36.1017H34.2373V1.86441ZM41.8644 3.72881V7.45762H43.7288H45.5932V5.59322V3.72881H47.5423H49.4915V1.86441V0H45.6779H41.8644V3.72881ZM53.3898 13.3051V26.6102H66.6949H80V13.3051V0H66.6949H53.3898V13.3051ZM3.72881 13.3051V22.8813H13.3051H22.8813V13.3051V3.72881H13.3051H3.72881V13.3051ZM57.1186 13.3051V22.8813H66.6949H76.2711V13.3051V3.72881H66.6949H57.1186V13.3051ZM7.62711 13.3051V18.983H13.3051H18.983V13.3051V7.62711H13.3051H7.62711V13.3051ZM45.7627 9.49152V11.3559H47.6271H49.4915V9.49152V7.62711H47.6271H45.7627V9.49152ZM61.0169 13.3051V18.983H66.6949H72.3728V13.3051V7.62711H66.6949H61.0169V13.3051ZM41.8644 13.2203V15.0847H43.7288H45.5932V13.2203V11.3559H43.7288H41.8644V13.2203ZM30.5085 22.7966V30.339H32.3729H34.2373V32.2881V34.2373H32.3729H30.5085V40V45.7627H24.7457H18.983V47.6271V49.4915H24.7457H30.5085V53.3051V57.1186H32.3729H34.2373V53.3051V49.4915H36.1017H37.9661V47.5423V45.5932H41.7796H45.5932V43.7288V41.8644H43.7288H41.8644V36.1017V30.339H45.6779H49.4915V22.7966V15.2542H47.6271H45.7627V17.1186V18.983H43.8135H41.8644V20.8474V22.7119H43.8135H45.7627V24.661V26.6102H43.8135H41.8644V24.7457V22.8813H40H38.1356V24.7457V26.6102H36.1864H34.2373V20.9322V15.2542H32.3729H30.5085V22.7966ZM0 32.3729V34.2373H1.86441H3.72881V38.0508V41.8644H5.59322H7.45762V36.1864V30.5085H3.72881H0V32.3729ZM11.3559 32.3729V34.2373H13.2203H15.0847V32.3729V30.5085H13.2203H11.3559V32.3729ZM22.8813 32.3729V34.2373H26.6102H30.339V32.3729V30.5085H26.6102H22.8813V32.3729ZM53.3898 34.2373V37.9661H59.0678H64.7457V41.8644V45.7627H62.8813H61.0169V47.6271V49.4915H62.8813H64.7457V51.4406V53.3898H62.7966H60.8474V51.4406V49.4915H58.983H57.1186V51.4406V53.3898H53.3051H49.4915V55.2542V57.1186H45.6779H41.8644V55.2542V53.3898H40H38.1356V55.2542V57.1186H40H41.8644V59.0678V61.0169H40H38.1356V64.7457V68.4745H40H41.8644V66.6101V64.7457H43.7288H45.5932V62.7966V60.8474H47.5423H49.4915V58.983V57.1186H55.2542H61.0169V60.9322V64.7457H59.0678H57.1186V70.5084V76.2711H55.2542H53.3898V78.1355V80H59.0678H64.7457V76.1864V72.3728H68.5593H72.3728V70.4237V68.4745H74.322H76.2711V70.4237V72.3728H78.1355H80V68.5593V64.7457H78.0508H76.1016V62.8813V61.0169H74.2372H72.3728V62.8813V64.7457H70.5084H68.644V66.6949V68.644H66.6949H64.7457V62.8813V57.1186H66.6101H68.4745V55.1695V53.2203H70.4237H72.3728V55.1695V57.1186H74.2372H76.1016V53.3051V49.4915H78.0508H80V47.6271V45.7627H78.0508H76.1016V43.8135V41.8644H74.2372H72.3728V39.9152V37.9661H74.322H76.2711V39.9152V41.8644H78.1355H80V38.0508V34.2373H78.0508H76.1016V32.3729V30.5085H72.3728H68.644V32.3729V34.2373H66.6949H64.7457V32.3729V30.5085H59.0678H53.3898V34.2373ZM34.2373 39.9152V41.8644H36.1864H38.1356V39.9152V37.9661H36.1864H34.2373V39.9152ZM11.3559 41.9491V45.7627H9.49152H7.62711V47.6271V49.4915H11.3559H15.0847V43.8135V38.1356H13.2203H11.3559V41.9491ZM22.8813 40V41.8644H24.7457H26.6102V40V38.1356H24.7457H22.8813V40ZM45.7627 40V41.8644H49.4915H53.2203V40V38.1356H49.4915H45.7627V40ZM53.3898 43.7288V45.5932H55.2542H57.1186V43.7288V41.8644H55.2542H53.3898V43.7288ZM68.4745 45.6779V49.4915H70.4237H72.3728V45.6779V41.8644H70.4237H68.4745V45.6779ZM45.7627 47.6271V49.4915H47.6271H49.4915V47.6271V45.7627H47.6271H45.7627V47.6271ZM41.8644 51.3559V53.2203H43.7288H45.5932V51.3559V49.4915H43.7288H41.8644V51.3559ZM0 66.6949V80H13.3051H26.6102V66.6949V53.3898H13.3051H0V66.6949ZM3.72881 66.6949V76.2711H13.3051H22.8813V66.6949V57.1186H13.3051H3.72881V66.6949ZM76.2711 58.983V60.8474H78.1355H80V58.983V57.1186H78.1355H76.2711V58.983ZM7.62711 66.6949V72.3728H13.3051H18.983V66.6949V61.0169H13.3051H7.62711V66.6949ZM49.4915 62.8813V64.7457H51.3559H53.2203V62.8813V61.0169H51.3559H49.4915V62.8813ZM30.5085 66.6101V68.4745H32.3729H34.2373V66.6101V64.7457H32.3729H30.5085V66.6101ZM45.7627 70.5084V72.3728H47.6271H49.4915V74.2372V76.1016H51.3559H53.2203V72.3728V68.644H49.4915H45.7627V70.5084ZM30.5085 76.1864V80H32.3729H34.2373V78.0508V76.1016H38.0508H41.8644V74.2372V72.3728H36.1864H30.5085V76.1864ZM72.3728 78.1355V80H74.2372H76.1016V78.1355V76.2711H74.2372H72.3728V78.1355Z" fill="#13141C"/>
</svg>
