<svg xmlns="http://www.w3.org/2000/svg" width="10" height="6" viewBox="0 0 10 6" fill="none">
<path d="M4.98037 5.99998C4.84938 6.00074 4.71954 5.97554 4.59828 5.9258C4.47702 5.87607 4.36673 5.8028 4.27373 5.71018L0.292697 1.71292C0.199901 1.61974 0.126291 1.50913 0.0760699 1.38739C0.0258488 1.26565 1.95554e-09 1.13517 0 1.0034C-1.95554e-09 0.871635 0.0258488 0.741156 0.0760699 0.619417C0.126291 0.497679 0.199901 0.387065 0.292697 0.29389C0.385494 0.200715 0.495659 0.126805 0.616904 0.076379C0.738148 0.0259532 0.868097 -1.96351e-09 0.999331 0C1.13057 1.96351e-09 1.26051 0.0259532 1.38176 0.076379C1.503 0.126805 1.61317 0.200715 1.70597 0.29389L4.98037 3.60163L8.26472 0.423801C8.35628 0.321581 8.46785 0.239429 8.59247 0.182482C8.71709 0.125535 8.85207 0.0950183 8.98897 0.0928405C9.12587 0.0906628 9.26175 0.11687 9.38811 0.169825C9.51446 0.222779 9.62857 0.301342 9.7233 0.400599C9.81804 0.499855 9.89136 0.61767 9.93868 0.746676C9.986 0.875682 10.0063 1.0131 9.9983 1.15035C9.99031 1.28759 9.95421 1.4217 9.89224 1.54429C9.83028 1.66688 9.74379 1.77532 9.63818 1.86282L5.65714 5.72018C5.47514 5.89637 5.23317 5.99641 4.98037 5.99998Z" fill="#13141C"/>
</svg>