<svg xmlns="http://www.w3.org/2000/svg" width="24" height="24" viewBox="0 0 24 24" fill="none">
<circle cx="12" cy="12" r="12" fill="#181818"/>
<path d="M12 11.2942C12.5585 11.2942 13.1044 11.1286 13.5687 10.8183C14.033 10.5081 14.3949 10.0671 14.6086 9.55114C14.8223 9.03521 14.8782 8.46749 14.7693 7.91978C14.6603 7.37207 14.3914 6.86897 13.9966 6.47409C13.6017 6.07921 13.0986 5.8103 12.5509 5.70135C12.0031 5.5924 11.4354 5.64832 10.9195 5.86202C10.4036 6.07573 9.96259 6.43763 9.65234 6.90196C9.34208 7.36628 9.17649 7.91218 9.17649 8.47063C9.17649 9.21947 9.47396 9.93765 10.0035 10.4672C10.533 10.9967 11.2512 11.2942 12 11.2942ZM12 7.05886C12.2792 7.05886 12.5522 7.14166 12.7843 7.29679C13.0165 7.45191 13.1975 7.6724 13.3043 7.93037C13.4112 8.18833 13.4391 8.47219 13.3847 8.74605C13.3302 9.0199 13.1957 9.27145 12.9983 9.46889C12.8008 9.66633 12.5493 9.80079 12.2754 9.85526C12.0016 9.90974 11.7177 9.88178 11.4598 9.77493C11.2018 9.66807 10.9813 9.48712 10.8262 9.25496C10.671 9.0228 10.5882 8.74985 10.5882 8.47063C10.5882 8.0962 10.737 7.73711 11.0017 7.47236C11.2665 7.2076 11.6256 7.05886 12 7.05886ZM12 12.7059C10.6895 12.7059 9.43273 13.2265 8.50607 14.1532C7.57942 15.0798 7.05884 16.3366 7.05884 17.6471C7.05884 17.8343 7.13321 18.0139 7.26559 18.1462C7.39796 18.2786 7.57751 18.353 7.76472 18.353C7.95193 18.353 8.13148 18.2786 8.26385 18.1462C8.39623 18.0139 8.4706 17.8343 8.4706 17.6471C8.4706 16.711 8.84245 15.8133 9.50434 15.1514C10.1662 14.4895 11.064 14.1177 12 14.1177C12.9361 14.1177 13.8338 14.4895 14.4957 15.1514C15.1576 15.8133 15.5294 16.711 15.5294 17.6471C15.5294 17.8343 15.6038 18.0139 15.7362 18.1462C15.8686 18.2786 16.0481 18.353 16.2353 18.353C16.4225 18.353 16.6021 18.2786 16.7344 18.1462C16.8668 18.0139 16.9412 17.8343 16.9412 17.6471C16.9412 16.3366 16.4206 15.0798 15.494 14.1532C14.5673 13.2265 13.3105 12.7059 12 12.7059Z" fill="white"/>
</svg>