<svg xmlns="http://www.w3.org/2000/svg" width="24" height="24" viewBox="0 0 24 24" fill="none">
<path fill-rule="evenodd" clip-rule="evenodd" d="M12 22C17.5229 22 22 17.5228 22 12C22 6.47715 17.5229 2 12 2C6.4772 2 2.00005 6.47715 2.00005 12C2.00005 17.5228 6.4772 22 12 22ZM7.70715 7.29289C8.09768 6.90237 8.73453 6.90605 9.1296 7.30112L12 10.1716L14.3558 7.81584C14.7508 7.42077 15.3877 7.41709 15.7782 7.80761C16.1687 8.19814 16.1651 8.83499 15.77 9.23006L13.4143 11.5858L16.1842 14.3557C16.5793 14.7508 16.583 15.3877 16.1924 15.7782C15.8019 16.1687 15.1651 16.165 14.77 15.7699L12 13L8.71538 16.2847C8.32031 16.6797 7.68346 16.6834 7.29294 16.2929C6.90241 15.9024 6.9061 15.2655 7.30117 14.8704L10.5858 11.5858L7.71538 8.71534C7.32031 8.32027 7.31663 7.68342 7.70715 7.29289Z" fill="#13141C"/>
</svg>