<svg xmlns="http://www.w3.org/2000/svg" width="24" height="24" viewBox="0 0 24 24" fill="none">
<path fill-rule="evenodd" clip-rule="evenodd" d="M12 22C17.5229 22 22 17.5228 22 12C22 6.47715 17.5229 2 12 2C6.4772 2 2.00005 6.47715 2.00005 12C2.00005 17.5228 6.4772 22 12 22ZM7.70722 7.29283C8.09774 6.9023 8.73459 6.90599 9.12967 7.30106L11.95 10.1214L14.7706 7.30077C15.1657 6.9057 15.8025 6.90201 16.193 7.29254C16.5836 7.68306 16.5799 8.31991 16.1848 8.71498L13.3642 11.5356L16.1843 14.3557C16.5793 14.7507 16.583 15.3876 16.1925 15.7781C15.802 16.1686 15.1651 16.1649 14.7701 15.7699L11.95 12.9498L9.13019 15.7696C8.73512 16.1647 8.09827 16.1683 7.70775 15.7778C7.31722 15.3873 7.32091 14.7504 7.71598 14.3554L10.5358 11.5356L7.71545 8.71527C7.32038 8.3202 7.3167 7.68335 7.70722 7.29283Z" fill="#13141C"/>
</svg>