<svg xmlns="http://www.w3.org/2000/svg" width="24" height="24" viewBox="0 0 24 24" fill="none">
  <path d="M19 19H5C4.44772 19 4 19.4477 4 20C4 20.5523 4.44772 21 5 21H19C19.5523 21 20 20.5523 20 20C20 19.4477 19.5523 19 19 19Z" fill="#13141C"/>
  <path d="M4 18V20C4 20.5523 4.44772 21 5 21C5.55228 21 6 20.5523 6 20V18C6 17.4477 5.55228 17 5 17C4.44772 17 4 17.4477 4 18Z" fill="#13141C"/>
  <path d="M18 18V20C18 20.5523 18.4477 21 19 21C19.5523 21 20 20.5523 20 20V18C20 17.4477 19.5523 17 19 17C18.4477 17 18 17.4477 18 18Z" fill="#13141C"/>
  <path d="M12.0007 16C11.7934 16.0015 11.5908 15.9386 11.4208 15.82L7.42136 13C7.2058 12.8471 7.05955 12.615 7.01458 12.3545C6.96962 12.0941 7.02959 11.8264 7.18139 11.61C7.25717 11.5018 7.35361 11.4098 7.46515 11.3391C7.5767 11.2684 7.70114 11.2206 7.83128 11.1982C7.96143 11.1759 8.0947 11.1796 8.22341 11.2091C8.35213 11.2386 8.47373 11.2933 8.58119 11.37L12.0007 13.76L15.4002 11.2C15.6124 11.0409 15.879 10.9725 16.1415 11.0101C16.4041 11.0476 16.6409 11.1878 16.8 11.4C16.9591 11.6122 17.0274 11.8789 16.9899 12.1414C16.9524 12.404 16.8122 12.6409 16.6001 12.8L12.6006 15.8C12.4275 15.9298 12.217 16 12.0007 16Z" fill="#13141C"/>
  <path d="M12 14C11.7348 14 11.4804 13.8946 11.2929 13.7071C11.1054 13.5196 11 13.2652 11 13V5C11 4.73478 11.1054 4.48043 11.2929 4.29289C11.4804 4.10536 11.7348 4 12 4C12.2652 4 12.5196 4.10536 12.7071 4.29289C12.8946 4.48043 13 4.73478 13 5V13C13 13.2652 12.8946 13.5196 12.7071 13.7071C12.5196 13.8946 12.2652 14 12 14Z" fill="#13141C"/>
</svg>