<svg xmlns="http://www.w3.org/2000/svg" width="24" height="24" viewBox="0 0 24 24" fill="none">
  <path d="M19 19H5C4.44772 19 4 19.4477 4 20C4 20.5523 4.44772 21 5 21H19C19.5523 21 20 20.5523 20 20C20 19.4477 19.5523 19 19 19Z" fill="white"/>
  <path d="M19 4H5C4.44772 4 4 4.44772 4 5C4 5.55228 4.44772 6 5 6H19C19.5523 6 20 5.55228 20 5C20 4.44772 19.5523 4 19 4Z" fill="white"/>
  <path d="M19 11H5C4.44772 11 4 11.4477 4 12C4 12.5523 4.44772 13 5 13H19C19.5523 13 20 12.5523 20 12C20 11.4477 19.5523 11 19 11Z" fill="white"/>
  <path d="M4 18V20C4 20.5523 4.44772 21 5 21C5.55228 21 6 20.5523 6 20V18C6 17.4477 5.55228 17 5 17C4.44772 17 4 17.4477 4 18Z" fill="white"/>
  <path d="M4 5V7C4 7.55228 4.44772 8 5 8C5.55228 8 6 7.55228 6 7V5C6 4.44772 5.55228 4 5 4C4.44772 4 4 4.44772 4 5Z" fill="white"/>
  <path d="M18 18V20C18 20.5523 18.4477 21 19 21C19.5523 21 20 20.5523 20 20V18C20 17.4477 19.5523 17 19 17C18.4477 17 18 17.4477 18 18Z" fill="white"/>
  <path d="M18 5V7C18 7.55228 18.4477 8 19 8C19.5523 8 20 7.55228 20 7V5C20 4.44772 19.5523 4 19 4C18.4477 4 18 4.44772 18 5Z" fill="white"/>
</svg>
