<svg xmlns="http://www.w3.org/2000/svg" width="24" height="24" viewBox="0 0 24 24" fill="none">
<path d="M21.1641 10.3631C21.1977 10.3038 21.2213 10.2394 21.2341 10.1725L21.9839 6.16086C22.0317 5.89487 21.9721 5.62076 21.8183 5.39882C21.6646 5.17688 21.4293 5.0253 21.1641 4.97742C20.8989 4.92954 20.6257 4.98929 20.4044 5.14352C20.1832 5.29775 20.032 5.53382 19.9843 5.79981L19.6144 7.80564C18.7822 6.28113 17.5384 5.02277 16.0259 4.17488C14.5133 3.32699 12.7931 2.9239 11.0626 3.01185C9.33208 3.09979 7.66132 3.67521 6.24192 4.67211C4.82251 5.669 3.71195 7.04701 3.03759 8.64808C2.93867 8.89417 2.941 9.16955 3.04406 9.41392C3.14713 9.65828 3.34253 9.85172 3.58748 9.95187C3.70951 10.0026 3.84035 10.0285 3.97243 10.0282C4.10451 10.0278 4.23521 10.0012 4.35699 9.94996C4.47877 9.89867 4.58922 9.82369 4.68194 9.72934C4.77467 9.63499 4.84784 9.52315 4.89723 9.40027C5.43566 8.07322 6.36171 6.9406 7.55369 6.15123C8.74568 5.36186 10.1478 4.95267 11.5759 4.97742C12.839 4.97151 14.0812 5.30046 15.1767 5.93095C16.2723 6.56145 17.1823 7.47111 17.8147 8.56785L16.1651 8.29707C16.0338 8.27599 15.8996 8.28107 15.7703 8.312C15.6409 8.34293 15.5189 8.39912 15.4112 8.47734C15.3035 8.55557 15.2123 8.65431 15.1426 8.76793C15.0729 8.88154 15.0263 9.00781 15.0053 9.13951C14.9843 9.27122 14.9893 9.40578 15.0202 9.53552C15.051 9.66527 15.107 9.78765 15.185 9.89568C15.263 10.0037 15.3614 10.0953 15.4747 10.1651C15.5879 10.235 15.7138 10.2818 15.8451 10.3029L20.0943 11.015H20.2543C20.3703 11.0164 20.4856 10.996 20.5942 10.9548C20.6308 10.9408 20.6647 10.9205 20.6942 10.8946C20.7659 10.8679 20.8332 10.8307 20.8941 10.7843L20.9741 10.684C21.026 10.6353 21.0729 10.5815 21.1141 10.5235C21.1384 10.4728 21.1553 10.4187 21.1641 10.3631ZM19.3844 14.0738C19.2618 14.0234 19.1304 13.998 18.9978 13.999C18.8653 14 18.7343 14.0274 18.6124 14.0797C18.4905 14.132 18.3802 14.208 18.2879 14.3034C18.1956 14.3988 18.1231 14.5117 18.0747 14.6355C17.5325 15.9486 16.6099 17.0683 15.4264 17.8496C14.2428 18.631 12.8527 19.0381 11.436 19.0182C10.1729 19.0241 8.93074 18.6952 7.83518 18.0647C6.73961 17.4342 5.82957 16.5245 5.19717 15.4278L6.84685 15.6986H7.00682C7.27199 15.7198 7.53472 15.6346 7.73722 15.4616C7.93972 15.2885 8.0654 15.0419 8.08661 14.7759C8.10783 14.5099 8.02283 14.2463 7.85033 14.0432C7.67783 13.8401 7.43196 13.714 7.16679 13.6927L2.91761 13.0007C2.80855 12.9806 2.69673 12.9806 2.58768 13.0007H2.50769C2.39454 13.0309 2.28665 13.0783 2.18775 13.1411C2.12034 13.1934 2.05986 13.254 2.00779 13.3217L1.9178 13.422C1.8869 13.4824 1.8634 13.5464 1.84782 13.6125C1.81278 13.6638 1.78893 13.7219 1.77783 13.783L1.02798 17.7947C0.995864 17.9279 0.991342 18.0664 1.01469 18.2015C1.03804 18.3366 1.08876 18.4655 1.16372 18.5802C1.23869 18.6949 1.3363 18.7929 1.45052 18.8682C1.56474 18.9436 1.69316 18.9946 1.82782 19.0182H2.00779C2.24453 19.0221 2.47496 18.9415 2.65805 18.7909C2.84114 18.6403 2.96501 18.4295 3.00759 18.1958L3.37752 16.19C4.20888 17.7149 5.45183 18.9738 6.96384 19.8225C8.47585 20.6713 10.1957 21.0753 11.9262 20.9884C13.6566 20.9015 15.3276 20.3272 16.7476 19.3312C18.1675 18.3353 19.2789 16.9581 19.9543 15.3576C20.0459 15.1114 20.0376 14.8389 19.931 14.5988C19.8244 14.3588 19.6282 14.1703 19.3844 14.0738Z" fill="#13141C"/>
</svg>