<svg xmlns="http://www.w3.org/2000/svg" width="24" height="24" viewBox="0 0 24 24" fill="none">
  <path fill-rule="evenodd" clip-rule="evenodd" d="M12 22C17.5229 22 22 17.5228 22 12C22 6.47715 17.5229 2 12 2C6.4772 2 2.00005 6.47715 2.00005 12C2.00005 17.5228 6.4772 22 12 22ZM7.70715 7.29289C8.09768 6.90237 8.73453 6.90605 9.1296 7.30113L11.9497 10.1212L14.7699 7.30105C15.165 6.90598 15.8018 6.90229 16.1924 7.29282C16.5829 7.68334 16.5792 8.32019 16.1841 8.71526L13.3639 11.5355L16.1842 14.3557C16.5793 14.7508 16.583 15.3877 16.1924 15.7782C15.8019 16.1687 15.1651 16.165 14.77 15.7699L11.9497 12.9497L9.12952 15.7699C8.73445 16.1649 8.0976 16.1686 7.70708 15.7781C7.31655 15.3876 7.32024 14.7507 7.71531 14.3557L10.5355 11.5355L7.71538 8.71534C7.32031 8.32027 7.31663 7.68342 7.70715 7.29289Z" fill="white"/>
</svg>