<svg xmlns="http://www.w3.org/2000/svg" width="10" height="6" viewBox="0 0 10 6" fill="none">
<path d="M5.01963 1.66893e-05C5.15062 -0.000743389 5.28046 0.0244646 5.40172 0.0741954C5.52298 0.123926 5.63327 0.1972 5.72627 0.289818L9.7073 4.28708C9.8001 4.38026 9.87371 4.49087 9.92393 4.61261C9.97415 4.73435 10 4.86483 10 4.9966C10 5.12836 9.97415 5.25884 9.92393 5.38058C9.87371 5.50232 9.8001 5.61294 9.7073 5.70611C9.61451 5.79928 9.50434 5.8732 9.3831 5.92362C9.26185 5.97405 9.1319 6 9.00067 6C8.86943 6 8.73949 5.97405 8.61824 5.92362C8.497 5.8732 8.38683 5.79928 8.29403 5.70611L5.01963 2.39837L1.73528 5.5762C1.64372 5.67842 1.53215 5.76057 1.40753 5.81752C1.28291 5.87447 1.14793 5.90498 1.01103 5.90716C0.874125 5.90934 0.738248 5.88313 0.611895 5.83018C0.48554 5.77722 0.371429 5.69866 0.276695 5.5994C0.18196 5.50014 0.108641 5.38233 0.0613232 5.25332C0.0140047 5.12432 -0.0062933 4.9869 0.00169659 4.84965C0.00968647 4.71241 0.0457945 4.5783 0.107759 4.45571C0.169724 4.33312 0.256214 4.22468 0.361821 4.13718L4.34286 0.279825C4.52486 0.103631 4.76683 0.00359011 5.01963 1.66893e-05Z" fill="white"/>
</svg>