<svg xmlns="http://www.w3.org/2000/svg" width="24" height="24" viewBox="0 0 24 24" fill="none">
  <path d="M19 19H5C4.44772 19 4 19.4477 4 20C4 20.5523 4.44772 21 5 21H19C19.5523 21 20 20.5523 20 20C20 19.4477 19.5523 19 19 19Z" fill="#13141C"/>
  <path d="M4 18V20C4 20.5523 4.44772 21 5 21C5.55228 21 6 20.5523 6 20V18C6 17.4477 5.55228 17 5 17C4.44772 17 4 17.4477 4 18Z" fill="#13141C"/>
  <path d="M18 18V20C18 20.5523 18.4477 21 19 21C19.5523 21 20 20.5523 20 20V18C20 17.4477 19.5523 17 19 17C18.4477 17 18 17.4477 18 18Z" fill="#13141C"/>
  <path d="M11.9993 4.00001C12.2066 3.99844 12.4092 4.06134 12.5792 4.18001L16.5786 7C16.7942 7.15294 16.9405 7.38501 16.9854 7.64548C17.0304 7.90594 16.9704 8.17363 16.8186 8.39C16.7428 8.49815 16.6464 8.59022 16.5348 8.66089C16.4233 8.73156 16.2989 8.77944 16.1687 8.80175C16.0386 8.82407 15.9053 8.82038 15.7766 8.7909C15.6479 8.76142 15.5263 8.70673 15.4188 8.63L11.9993 6.24L8.59978 8.8C8.38764 8.95913 8.12097 9.02745 7.85846 8.98995C7.59595 8.95244 7.35908 8.81217 7.19998 8.6C7.04087 8.38783 6.97255 8.12113 7.01005 7.85858C7.04755 7.59603 7.1878 7.35913 7.39995 7.2L11.3994 4.20001C11.5725 4.07019 11.783 4.00001 11.9993 4.00001Z" fill="#13141C"/>
  <path d="M12 6C12.2652 6 12.5196 6.10536 12.7071 6.29289C12.8946 6.48043 13 6.73478 13 7L13 15C13 15.2652 12.8946 15.5196 12.7071 15.7071C12.5196 15.8946 12.2652 16 12 16C11.7348 16 11.4804 15.8946 11.2929 15.7071C11.1054 15.5196 11 15.2652 11 15L11 7C11 6.73478 11.1054 6.48043 11.2929 6.29289C11.4804 6.10536 11.7348 6 12 6Z" fill="#13141C"/>
</svg>