<svg xmlns="http://www.w3.org/2000/svg" width="132" height="34" viewBox="0 0 132 34" fill="none">
<path fill-rule="evenodd" clip-rule="evenodd" d="M0 7.95027V15.9005H1.20585H2.41169V9.55725V3.21395H2.73324C3.0012 3.21395 3.05482 3.24211 3.05482 3.3831C3.05482 3.47613 3.09098 3.55224 3.1352 3.55224C3.17942 3.55224 3.21559 3.66643 3.21559 3.80599C3.21559 3.94553 3.25177 4.05972 3.29597 4.05972C3.34019 4.05972 3.37638 4.13583 3.37638 4.22888C3.37638 4.3219 3.41254 4.39803 3.45676 4.39803C3.50098 4.39803 3.53714 4.47414 3.53714 4.56717C3.53714 4.66022 3.57333 4.73633 3.61753 4.73633C3.66175 4.73633 3.69793 4.81246 3.69793 4.90549C3.69793 4.99851 3.7341 5.07465 3.77832 5.07465C3.82254 5.07465 3.8587 5.15075 3.8587 5.2438C3.8587 5.33683 3.89489 5.41296 3.93911 5.41296C3.9833 5.41296 4.01949 5.48907 4.01949 5.5821C4.01949 5.67515 4.05565 5.75126 4.09987 5.75126C4.14409 5.75126 4.18026 5.82739 4.18026 5.92042C4.18026 6.01344 4.21644 6.08957 4.26066 6.08957C4.30486 6.08957 4.34105 6.16568 4.34105 6.25873C4.34105 6.35176 4.37723 6.42789 4.42143 6.42789C4.46565 6.42789 4.50184 6.504 4.50184 6.59703C4.50184 6.69008 4.538 6.76619 4.58222 6.76619C4.62644 6.76619 4.6626 6.84232 4.6626 6.93535C4.6626 7.02837 4.69879 7.1045 4.74299 7.1045C4.78721 7.1045 4.82339 7.18061 4.82339 7.27366C4.82339 7.36669 4.85956 7.4428 4.90378 7.4428C4.948 7.4428 4.98416 7.55698 4.98416 7.69655C4.98416 7.83609 5.02035 7.95027 5.06454 7.95027C5.10876 7.95027 5.14495 8.02638 5.14495 8.11943C5.14495 8.21246 5.18111 8.28859 5.22533 8.28859C5.26955 8.28859 5.30572 8.3647 5.30572 8.45773C5.30572 8.55078 5.3419 8.62689 5.38612 8.62689C5.43032 8.62689 5.46651 8.70302 5.46651 8.79605C5.46651 8.88907 5.50267 8.9652 5.54689 8.9652C5.59111 8.9652 5.62727 9.04131 5.62727 9.13436C5.62727 9.22739 5.66346 9.30352 5.70768 9.30352C5.75188 9.30352 5.78806 9.37963 5.78806 9.47266C5.78806 9.56571 5.82425 9.64182 5.86845 9.64182C5.91267 9.64182 5.94885 9.70162 5.94885 9.7747C5.94885 10.1013 6.13406 10.1493 7.39587 10.1493C8.65765 10.1493 8.84289 10.1013 8.84289 9.7747C8.84289 9.70162 8.87905 9.64182 8.92327 9.64182C8.96749 9.64182 9.00365 9.56571 9.00365 9.47266C9.00365 9.37963 9.03984 9.30352 9.08403 9.30352C9.12825 9.30352 9.16444 9.22739 9.16444 9.13436C9.16444 9.04131 9.20061 8.9652 9.24483 8.9652C9.28905 8.9652 9.32521 8.88907 9.32521 8.79605C9.32521 8.70302 9.36139 8.62689 9.40559 8.62689C9.44981 8.62689 9.486 8.55078 9.486 8.45773C9.486 8.3647 9.52216 8.28859 9.56638 8.28859C9.6106 8.28859 9.64676 8.21246 9.64676 8.11943C9.64676 8.02638 9.68295 7.95027 9.72717 7.95027C9.77137 7.95027 9.80755 7.87417 9.80755 7.78112C9.80755 7.68809 9.84372 7.61196 9.88794 7.61196C9.93216 7.61196 9.96832 7.53585 9.96832 7.4428C9.96832 7.34977 10.0045 7.27366 10.0487 7.27366C10.0929 7.27366 10.1291 7.19753 10.1291 7.1045C10.1291 7.01145 10.1653 6.93535 10.2095 6.93535C10.2537 6.93535 10.2899 6.85924 10.2899 6.76619C10.2899 6.67316 10.3261 6.59703 10.3703 6.59703C10.4145 6.59703 10.4507 6.52092 10.4507 6.42789C10.4507 6.33484 10.4869 6.25873 10.5311 6.25873C10.5753 6.25873 10.6115 6.1826 10.6115 6.08957C10.6115 5.99655 10.6476 5.92042 10.6918 5.92042C10.7361 5.92042 10.7722 5.80623 10.7722 5.66669C10.7722 5.52713 10.8084 5.41296 10.8526 5.41296C10.8968 5.41296 10.933 5.33683 10.933 5.2438C10.933 5.15075 10.9692 5.07465 11.0134 5.07465C11.0576 5.07465 11.0938 4.99851 11.0938 4.90549C11.0938 4.81246 11.13 4.73633 11.1742 4.73633C11.2184 4.73633 11.2546 4.66022 11.2546 4.56717C11.2546 4.47414 11.2907 4.39803 11.335 4.39803C11.3792 4.39803 11.4153 4.3219 11.4153 4.22888C11.4153 4.13583 11.4515 4.05972 11.4957 4.05972C11.5399 4.05972 11.5761 3.98358 11.5761 3.89056C11.5761 3.79753 11.6123 3.7214 11.6565 3.7214C11.7007 3.7214 11.7369 3.66162 11.7369 3.58854C11.7369 3.38885 11.9407 3.21395 12.1733 3.21395H12.38V9.55725V15.9005H13.5859H14.7917V7.95027V0H12.782C10.8258 0 10.7722 0.0044826 10.7722 0.169155C10.7722 0.26219 10.7361 0.33831 10.6918 0.33831C10.6476 0.33831 10.6115 0.414428 10.6115 0.507465C10.6115 0.600498 10.5753 0.676619 10.5311 0.676619C10.4869 0.676619 10.4507 0.752739 10.4507 0.845773C10.4507 0.938809 10.4145 1.01493 10.3703 1.01493C10.3261 1.01493 10.2899 1.09105 10.2899 1.18408C10.2899 1.27712 10.2537 1.35324 10.2095 1.35324C10.1653 1.35324 10.1291 1.42936 10.1291 1.52239C10.1291 1.61543 10.0929 1.69155 10.0487 1.69155C10.0045 1.69155 9.96832 1.76767 9.96832 1.8607C9.96832 1.95374 9.93216 2.02986 9.88794 2.02986C9.84372 2.02986 9.80755 2.10598 9.80755 2.19901C9.80755 2.29204 9.77137 2.36818 9.72717 2.36818C9.68295 2.36818 9.64676 2.44428 9.64676 2.53731C9.64676 2.63036 9.6106 2.70647 9.56638 2.70647C9.52216 2.70647 9.486 2.82066 9.486 2.96022C9.486 3.09976 9.44981 3.21395 9.40559 3.21395C9.36139 3.21395 9.32521 3.29006 9.32521 3.3831C9.32521 3.47613 9.28905 3.55224 9.24483 3.55224C9.20061 3.55224 9.16444 3.62837 9.16444 3.7214C9.16444 3.81445 9.12825 3.89056 9.08403 3.89056C9.03984 3.89056 9.00365 3.96669 9.00365 4.05972C9.00365 4.15274 8.96749 4.22888 8.92327 4.22888C8.87905 4.22888 8.84289 4.30498 8.84289 4.39803C8.84289 4.49106 8.8067 4.56717 8.76248 4.56717C8.71828 4.56717 8.6821 4.6433 8.6821 4.73633C8.6821 4.82938 8.64591 4.90549 8.60171 4.90549C8.55749 4.90549 8.52131 4.98162 8.52131 5.07465C8.52131 5.16767 8.48514 5.2438 8.44092 5.2438C8.3967 5.2438 8.36054 5.35797 8.36054 5.49753C8.36054 5.63707 8.32435 5.75126 8.28016 5.75126C8.23594 5.75126 8.19975 5.82739 8.19975 5.92042C8.19975 6.01344 8.16359 6.08957 8.11937 6.08957C8.07515 6.08957 8.03898 6.16568 8.03898 6.25873C8.03898 6.35176 8.0028 6.42789 7.95858 6.42789C7.91438 6.42789 7.87819 6.48768 7.87819 6.56075C7.87819 6.78117 7.6654 6.93535 7.36137 6.93535C7.12791 6.93535 7.07429 6.90379 7.07429 6.76619C7.07429 6.67316 7.03813 6.59703 6.99391 6.59703C6.94969 6.59703 6.91352 6.52092 6.91352 6.42789C6.91352 6.33484 6.87734 6.25873 6.83314 6.25873C6.78892 6.25873 6.75273 6.1826 6.75273 6.08957C6.75273 5.99655 6.71657 5.92042 6.67235 5.92042C6.62813 5.92042 6.59197 5.84431 6.59197 5.75126C6.59197 5.65823 6.55578 5.5821 6.51156 5.5821C6.46736 5.5821 6.43118 5.50599 6.43118 5.41296C6.43118 5.31991 6.39501 5.2438 6.35079 5.2438C6.30657 5.2438 6.27041 5.12962 6.27041 4.99006C6.27041 4.85051 6.23422 4.73633 6.19 4.73633C6.14581 4.73633 6.10962 4.66022 6.10962 4.56717C6.10962 4.47414 6.07346 4.39803 6.02924 4.39803C5.98502 4.39803 5.94885 4.3219 5.94885 4.22888C5.94885 4.13583 5.91267 4.05972 5.86845 4.05972C5.82425 4.05972 5.78806 3.98358 5.78806 3.89056C5.78806 3.79753 5.75188 3.7214 5.70768 3.7214C5.66346 3.7214 5.62727 3.64529 5.62727 3.55224C5.62727 3.45921 5.59111 3.3831 5.54689 3.3831C5.50267 3.3831 5.46651 3.30697 5.46651 3.21395C5.46651 3.1209 5.43032 3.04479 5.38612 3.04479C5.3419 3.04479 5.30572 2.96866 5.30572 2.87563C5.30572 2.7826 5.26955 2.70647 5.22533 2.70647C5.18111 2.70647 5.14495 2.63036 5.14495 2.53731C5.14495 2.44428 5.10876 2.36818 5.06454 2.36818C5.02035 2.36818 4.98416 2.29204 4.98416 2.19901C4.98416 2.10598 4.948 2.02986 4.90378 2.02986C4.85956 2.02986 4.82339 1.95374 4.82339 1.8607C4.82339 1.76767 4.78721 1.69155 4.74299 1.69155C4.69879 1.69155 4.6626 1.57737 4.6626 1.43782C4.6626 1.29826 4.62644 1.18408 4.58222 1.18408C4.538 1.18408 4.50184 1.10796 4.50184 1.01493C4.50184 0.921893 4.46565 0.845773 4.42143 0.845773C4.37723 0.845773 4.34105 0.769655 4.34105 0.676619C4.34105 0.583585 4.30486 0.507465 4.26066 0.507465C4.21644 0.507465 4.18026 0.447667 4.18026 0.374593C4.18026 0.0240199 4.03911 0 1.97526 0H0V7.95027ZM26.3679 0.169155C26.3679 0.26219 26.3317 0.33831 26.2873 0.33831C26.2432 0.33831 26.207 0.45249 26.207 0.592042C26.207 0.731594 26.1708 0.845773 26.1267 0.845773C26.0825 0.845773 26.0463 0.959954 26.0463 1.09951C26.0463 1.23906 26.0101 1.35324 25.966 1.35324C25.9216 1.35324 25.8854 1.46742 25.8854 1.60697C25.8854 1.74652 25.8492 1.8607 25.8051 1.8607C25.7609 1.8607 25.7248 1.97488 25.7248 2.11444C25.7248 2.25399 25.6886 2.36818 25.6444 2.36818C25.6 2.36818 25.5638 2.48234 25.5638 2.6219C25.5638 2.76144 25.5277 2.87563 25.4835 2.87563C25.4394 2.87563 25.4032 2.98981 25.4032 3.12936C25.4032 3.26892 25.367 3.3831 25.3228 3.3831C25.2785 3.3831 25.2425 3.49727 25.2425 3.63683C25.2425 3.77637 25.2063 3.89056 25.1619 3.89056C25.1178 3.89056 25.0816 4.00474 25.0816 4.14428C25.0816 4.28385 25.0454 4.39803 25.0013 4.39803C24.9571 4.39803 24.9209 4.5122 24.9209 4.65176C24.9209 4.7913 24.8847 4.90549 24.8404 4.90549C24.7962 4.90549 24.76 5.01967 24.76 5.15921C24.76 5.29878 24.7238 5.41296 24.6797 5.41296C24.6355 5.41296 24.5993 5.52713 24.5993 5.66669C24.5993 5.80623 24.5632 5.92042 24.5188 5.92042C24.4746 5.92042 24.4384 6.0346 24.4384 6.17414C24.4384 6.31371 24.4022 6.42789 24.3581 6.42789C24.3139 6.42789 24.2778 6.54206 24.2778 6.68162C24.2778 6.82116 24.2416 6.93535 24.1974 6.93535C24.153 6.93535 24.1169 7.04953 24.1169 7.18907C24.1169 7.32864 24.0807 7.4428 24.0365 7.4428C23.9924 7.4428 23.9562 7.55698 23.9562 7.69655C23.9562 7.83609 23.92 7.95027 23.8758 7.95027C23.8315 7.95027 23.7953 8.06446 23.7953 8.204C23.7953 8.34356 23.7591 8.45773 23.7149 8.45773C23.6708 8.45773 23.6346 8.60997 23.6346 8.79605C23.6346 8.98212 23.5984 9.13436 23.5543 9.13436C23.5099 9.13436 23.4739 9.24855 23.4739 9.38809C23.4739 9.52765 23.4377 9.64182 23.3934 9.64182C23.3492 9.64182 23.313 9.756 23.313 9.89557C23.313 10.0351 23.2768 10.1493 23.2327 10.1493C23.1885 10.1493 23.1523 10.2635 23.1523 10.403C23.1523 10.5426 23.1162 10.6567 23.0718 10.6567C23.0276 10.6567 22.9914 10.7709 22.9914 10.9105C22.9914 11.05 22.9553 11.1642 22.9111 11.1642C22.867 11.1642 22.8308 11.2784 22.8308 11.4179C22.8308 11.5575 22.7946 11.6717 22.7503 11.6717C22.7061 11.6717 22.6699 11.7859 22.6699 11.9254C22.6699 12.065 22.6337 12.1791 22.5895 12.1791C22.5453 12.1791 22.5091 12.2933 22.5091 12.4329C22.5091 12.5724 22.473 12.6866 22.4287 12.6866C22.3845 12.6866 22.3484 12.8008 22.3484 12.9403C22.3484 13.0799 22.3122 13.1941 22.268 13.1941C22.2237 13.1941 22.1876 13.3082 22.1876 13.4478C22.1876 13.5873 22.1514 13.7015 22.1072 13.7015C22.063 13.7015 22.0268 13.8157 22.0268 13.9553C22.0268 14.0948 21.9906 14.209 21.9464 14.209C21.9022 14.209 21.866 14.3232 21.866 14.4627C21.866 14.6023 21.8298 14.7165 21.7856 14.7165C21.7414 14.7165 21.7052 14.8306 21.7052 14.9702C21.7052 15.1098 21.6691 15.2239 21.6249 15.2239C21.5806 15.2239 21.5444 15.3381 21.5444 15.4777C21.5444 15.6172 21.5083 15.7314 21.4641 15.7314C21.4198 15.7314 21.3837 15.7694 21.3837 15.816C21.3837 15.8688 21.866 15.9005 22.6699 15.9005C23.9025 15.9005 23.9562 15.8935 23.9562 15.7314C23.9562 15.6384 23.9924 15.5622 24.0365 15.5622C24.0807 15.5622 24.1169 15.41 24.1169 15.2239C24.1169 15.0379 24.153 14.8856 24.1974 14.8856C24.2416 14.8856 24.2778 14.7714 24.2778 14.6319C24.2778 14.4923 24.3139 14.3782 24.3581 14.3782C24.4022 14.3782 24.4384 14.264 24.4384 14.1244C24.4384 13.9849 24.4746 13.8707 24.5188 13.8707C24.5632 13.8707 24.5993 13.7565 24.5993 13.617C24.5993 13.4774 24.6355 13.3632 24.6797 13.3632C24.7238 13.3632 24.76 13.2491 24.76 13.1095C24.76 12.9699 24.7962 12.8558 24.8404 12.8558C24.8847 12.8558 24.9209 12.7416 24.9209 12.602C24.9209 12.4625 24.9571 12.3483 25.0013 12.3483C25.0454 12.3483 25.0816 12.1961 25.0816 12.01C25.0816 11.8239 25.1178 11.6717 25.1619 11.6717C25.2063 11.6717 25.2425 11.5956 25.2425 11.5025C25.2425 11.3363 25.296 11.3334 28.3431 11.3334C31.774 11.3334 31.6736 11.317 31.6736 11.8771C31.6736 12.0432 31.7098 12.1791 31.754 12.1791C31.7981 12.1791 31.8343 12.2933 31.8343 12.4329C31.8343 12.5724 31.8705 12.6866 31.9146 12.6866C31.959 12.6866 31.9952 12.8008 31.9952 12.9403C31.9952 13.0799 32.0314 13.1941 32.0755 13.1941C32.1197 13.1941 32.1559 13.3082 32.1559 13.4478C32.1559 13.5873 32.1921 13.7015 32.2362 13.7015C32.2806 13.7015 32.3168 13.8157 32.3168 13.9553C32.3168 14.0948 32.353 14.209 32.3971 14.209C32.4413 14.209 32.4775 14.3232 32.4775 14.4627C32.4775 14.6023 32.5136 14.7165 32.5578 14.7165C32.6022 14.7165 32.6381 14.8306 32.6381 14.9702C32.6381 15.1098 32.6743 15.2239 32.7187 15.2239C32.7629 15.2239 32.799 15.3218 32.799 15.4414C32.799 15.8623 32.9224 15.9005 34.2806 15.9005C35.0615 15.9005 35.5324 15.8687 35.5324 15.816C35.5324 15.7694 35.4962 15.7314 35.4518 15.7314C35.4076 15.7314 35.3714 15.6172 35.3714 15.4777C35.3714 15.3381 35.3353 15.2239 35.2911 15.2239C35.247 15.2239 35.2108 15.1098 35.2108 14.9702C35.2108 14.8306 35.1746 14.7165 35.1304 14.7165C35.0861 14.7165 35.0499 14.6023 35.0499 14.4627C35.0499 14.3232 35.0137 14.209 34.9695 14.209C34.9254 14.209 34.8892 14.0948 34.8892 13.9553C34.8892 13.8157 34.853 13.7015 34.8089 13.7015C34.7645 13.7015 34.7283 13.5873 34.7283 13.4478C34.7283 13.3082 34.6921 13.1941 34.648 13.1941C34.6038 13.1941 34.5676 13.0799 34.5676 12.9403C34.5676 12.8008 34.5314 12.6866 34.4873 12.6866C34.4429 12.6866 34.4067 12.5724 34.4067 12.4329C34.4067 12.2933 34.3708 12.1791 34.3264 12.1791C34.2822 12.1791 34.246 12.065 34.246 11.9254C34.246 11.7859 34.2098 11.6717 34.1657 11.6717C34.1215 11.6717 34.0854 11.5575 34.0854 11.4179C34.0854 11.2784 34.0492 11.1642 34.0048 11.1642C33.9606 11.1642 33.9245 11.05 33.9245 10.9105C33.9245 10.7709 33.8883 10.6567 33.8441 10.6567C33.8 10.6567 33.7638 10.5426 33.7638 10.403C33.7638 10.2635 33.7276 10.1493 33.6832 10.1493C33.6391 10.1493 33.6029 10.0351 33.6029 9.89557C33.6029 9.756 33.5667 9.64182 33.5225 9.64182C33.4784 9.64182 33.4422 9.52765 33.4422 9.38809C33.4422 9.24855 33.406 9.13436 33.3619 9.13436C33.3175 9.13436 33.2813 9.02018 33.2813 8.88064C33.2813 8.74107 33.2451 8.62689 33.201 8.62689C33.1568 8.62689 33.1206 8.51272 33.1206 8.37316C33.1206 8.23362 33.0844 8.11943 33.0403 8.11943C32.9959 8.11943 32.9597 8.00525 32.9597 7.86571C32.9597 7.72614 32.9235 7.61196 32.8794 7.61196C32.8352 7.61196 32.799 7.49779 32.799 7.35823C32.799 7.21869 32.7629 7.1045 32.7187 7.1045C32.6743 7.1045 32.6381 6.99032 32.6381 6.85078C32.6381 6.71121 32.6022 6.59703 32.5578 6.59703C32.5136 6.59703 32.4775 6.48286 32.4775 6.3433C32.4775 6.20376 32.4413 6.08957 32.3971 6.08957C32.353 6.08957 32.3168 5.97539 32.3168 5.83585C32.3168 5.69628 32.2806 5.5821 32.2362 5.5821C32.1921 5.5821 32.1559 5.46794 32.1559 5.32837C32.1559 5.18883 32.1197 5.07465 32.0755 5.07465C32.0314 5.07465 31.9952 4.96046 31.9952 4.82092C31.9952 4.68136 31.959 4.56717 31.9146 4.56717C31.8705 4.56717 31.8343 4.45301 31.8343 4.31344C31.8343 4.1739 31.7981 4.05972 31.754 4.05972C31.7098 4.05972 31.6736 3.94553 31.6736 3.80599C31.6736 3.66643 31.6374 3.55224 31.5933 3.55224C31.5489 3.55224 31.5127 3.43808 31.5127 3.29851C31.5127 3.15897 31.4765 3.04479 31.4324 3.04479C31.3882 3.04479 31.352 2.9306 31.352 2.79106C31.352 2.6515 31.3159 2.53731 31.2717 2.53731C31.2273 2.53731 31.1911 2.42315 31.1911 2.28358C31.1911 2.14404 31.155 2.02986 31.1108 2.02986C31.0667 2.02986 31.0305 1.91568 31.0305 1.77612C31.0305 1.63657 30.9943 1.52239 30.9501 1.52239C30.9058 1.52239 30.8696 1.40821 30.8696 1.26866C30.8696 1.12911 30.8336 1.01493 30.7892 1.01493C30.7451 1.01493 30.7089 0.90075 30.7089 0.761196C30.7089 0.621644 30.6727 0.507465 30.6286 0.507465C30.5842 0.507465 30.5482 0.393285 30.5482 0.253731V0H28.4581C26.4214 0 26.3679 0.00431344 26.3679 0.169155ZM42.1242 7.95027V15.9005H43.3301H44.5359V9.89557V3.89056H44.7425C44.9754 3.89056 45.1791 4.06546 45.1791 4.26515C45.1791 4.33823 45.2152 4.39803 45.2594 4.39803C45.3038 4.39803 45.3397 4.47414 45.3397 4.56717C45.3397 4.66022 45.3759 4.73633 45.4203 4.73633C45.4644 4.73633 45.5006 4.80407 45.5006 4.88679C45.5006 4.9696 45.573 5.09216 45.6613 5.15921C45.7498 5.22629 45.8222 5.34885 45.8222 5.43164C45.8222 5.51436 45.8584 5.5821 45.9025 5.5821C45.9467 5.5821 45.9829 5.65823 45.9829 5.75126C45.9829 5.84431 46.0191 5.92042 46.0634 5.92042C46.1076 5.92042 46.1438 5.99655 46.1438 6.08957C46.1438 6.1826 46.18 6.25873 46.2241 6.25873C46.2683 6.25873 46.3045 6.33484 46.3045 6.42789C46.3045 6.52092 46.3406 6.59703 46.3848 6.59703C46.4292 6.59703 46.4654 6.66479 46.4654 6.74749C46.4654 6.8303 46.5377 6.95286 46.626 7.01991C46.7146 7.08699 46.7869 7.20955 46.7869 7.29234C46.7869 7.37506 46.8231 7.4428 46.8673 7.4428C46.9114 7.4428 46.9476 7.51893 46.9476 7.61196C46.9476 7.70501 46.9838 7.78112 47.028 7.78112C47.0723 7.78112 47.1083 7.85725 47.1083 7.95027C47.1083 8.0433 47.1445 8.11943 47.1889 8.11943C47.233 8.11943 47.2692 8.19554 47.2692 8.28859C47.2692 8.38162 47.3054 8.45773 47.3495 8.45773C47.3937 8.45773 47.4299 8.52549 47.4299 8.60821C47.4299 8.691 47.5022 8.81356 47.5908 8.88064C47.6791 8.94769 47.7515 9.07025 47.7515 9.15306C47.7515 9.23576 47.7876 9.30352 47.832 9.30352C47.8762 9.30352 47.9124 9.37963 47.9124 9.47266C47.9124 9.56571 47.9485 9.64182 47.9927 9.64182C48.0368 9.64182 48.073 9.71795 48.073 9.81098C48.073 9.904 48.1092 9.98013 48.1534 9.98013C48.1978 9.98013 48.2339 10.0562 48.2339 10.1493C48.2339 10.2423 48.2701 10.3185 48.3143 10.3185C48.3584 10.3185 48.3946 10.3862 48.3946 10.4689C48.3946 10.5517 48.467 10.6743 48.5555 10.7413C48.6438 10.8084 48.7162 10.9309 48.7162 11.0138C48.7162 11.0965 48.7524 11.1642 48.7965 11.1642C48.8409 11.1642 48.8769 11.2403 48.8769 11.3334C48.8769 11.4264 48.9131 11.5025 48.9574 11.5025C49.0016 11.5025 49.0378 11.5786 49.0378 11.6717C49.0378 11.7647 49.074 11.8408 49.1181 11.8408C49.1623 11.8408 49.1984 11.917 49.1984 12.01C49.1984 12.103 49.2346 12.1791 49.279 12.1791C49.3232 12.1791 49.3594 12.2469 49.3594 12.3296C49.3594 12.4124 49.4317 12.535 49.52 12.602C49.6086 12.6691 49.6809 12.7916 49.6809 12.8745C49.6809 12.9572 49.7171 13.0249 49.7613 13.0249C49.8054 13.0249 49.8416 13.101 49.8416 13.1941C49.8416 13.2871 49.8778 13.3632 49.9219 13.3632C49.9663 13.3632 50.0025 13.4393 50.0025 13.5324C50.0025 13.6254 50.0387 13.7015 50.0829 13.7015C50.127 13.7015 50.1632 13.7777 50.1632 13.8707C50.1632 13.9637 50.1994 14.0399 50.2435 14.0399C50.2879 14.0399 50.3241 14.116 50.3241 14.209C50.3241 14.302 50.3603 14.3782 50.4044 14.3782C50.4486 14.3782 50.4848 14.4459 50.4848 14.5286C50.4848 14.6114 50.5571 14.734 50.6454 14.8011C50.734 14.8681 50.8063 14.9907 50.8063 15.0735C50.8063 15.1562 50.8425 15.2239 50.8867 15.2239C50.9308 15.2239 50.967 15.3 50.967 15.3931C50.967 15.4861 51.0032 15.5622 51.0476 15.5622C51.0917 15.5622 51.1279 15.6384 51.1279 15.7314C51.1279 15.8956 51.1814 15.9005 52.9768 15.9005H54.8257V7.95027V0H53.62H52.4142V6.08957V12.1791H52.2074C51.9748 12.1791 51.7711 12.0042 51.7711 11.8046C51.7711 11.7315 51.7349 11.6717 51.6905 11.6717C51.6464 11.6717 51.6102 11.6039 51.6102 11.5212C51.6102 11.4384 51.5378 11.3159 51.4495 11.2488C51.361 11.1817 51.2886 11.0592 51.2886 10.9764C51.2886 10.8936 51.2524 10.8259 51.2083 10.8259C51.1641 10.8259 51.1279 10.7498 51.1279 10.6567C51.1279 10.5637 51.0917 10.4876 51.0476 10.4876C51.0032 10.4876 50.967 10.4115 50.967 10.3185C50.967 10.2254 50.9308 10.1493 50.8867 10.1493C50.8425 10.1493 50.8063 10.0732 50.8063 9.98013C50.8063 9.88711 50.7702 9.81098 50.726 9.81098C50.6816 9.81098 50.6454 9.73487 50.6454 9.64182C50.6454 9.54879 50.6095 9.47266 50.5651 9.47266C50.521 9.47266 50.4848 9.40492 50.4848 9.3222C50.4848 9.23941 50.4124 9.11685 50.3241 9.04977C50.2356 8.98271 50.1632 8.86016 50.1632 8.77735C50.1632 8.69465 50.127 8.62689 50.0829 8.62689C50.0387 8.62689 50.0025 8.55078 50.0025 8.45773C50.0025 8.3647 49.9663 8.28859 49.9219 8.28859C49.8778 8.28859 49.8416 8.21246 49.8416 8.11943C49.8416 8.02638 49.8054 7.95027 49.7613 7.95027C49.7171 7.95027 49.6809 7.87417 49.6809 7.78112C49.6809 7.68809 49.6447 7.61196 49.6006 7.61196C49.5562 7.61196 49.52 7.54422 49.52 7.4615C49.52 7.37871 49.4477 7.25615 49.3594 7.18907C49.2708 7.12202 49.1984 6.99946 49.1984 6.91665C49.1984 6.83393 49.1623 6.76619 49.1181 6.76619C49.074 6.76619 49.0378 6.69008 49.0378 6.59703C49.0378 6.504 49.0016 6.42789 48.9574 6.42789C48.9131 6.42789 48.8769 6.35176 48.8769 6.25873C48.8769 6.16568 48.8409 6.08957 48.7965 6.08957C48.7524 6.08957 48.7162 6.01344 48.7162 5.92042C48.7162 5.82739 48.68 5.75126 48.6359 5.75126C48.5917 5.75126 48.5555 5.68352 48.5555 5.6008C48.5555 5.51801 48.4831 5.39545 48.3946 5.32837C48.3063 5.26132 48.2339 5.13876 48.2339 5.05595C48.2339 4.97323 48.1978 4.90549 48.1534 4.90549C48.1092 4.90549 48.073 4.82938 48.073 4.73633C48.073 4.6433 48.0368 4.56717 47.9927 4.56717C47.9485 4.56717 47.9124 4.49106 47.9124 4.39803C47.9124 4.30498 47.8762 4.22888 47.832 4.22888C47.7876 4.22888 47.7515 4.15274 47.7515 4.05972C47.7515 3.96669 47.7153 3.89056 47.6711 3.89056C47.627 3.89056 47.5908 3.82282 47.5908 3.7401C47.5908 3.65731 47.5184 3.53475 47.4299 3.46767C47.3416 3.40059 47.2692 3.27804 47.2692 3.19525C47.2692 3.11253 47.233 3.04479 47.1889 3.04479C47.1445 3.04479 47.1083 2.96866 47.1083 2.87563C47.1083 2.7826 47.0723 2.70647 47.028 2.70647C46.9838 2.70647 46.9476 2.63036 46.9476 2.53731C46.9476 2.44428 46.9114 2.36818 46.8673 2.36818C46.8231 2.36818 46.7869 2.29204 46.7869 2.19901C46.7869 2.10598 46.7508 2.02986 46.7064 2.02986C46.6622 2.02986 46.626 1.96211 46.626 1.87939C46.626 1.79659 46.5537 1.67404 46.4654 1.60697C46.3768 1.5399 46.3045 1.41735 46.3045 1.33455C46.3045 1.25183 46.2683 1.18408 46.2241 1.18408C46.18 1.18408 46.1438 1.10796 46.1438 1.01493C46.1438 0.921893 46.1076 0.845773 46.0634 0.845773C46.0191 0.845773 45.9829 0.769655 45.9829 0.676619C45.9829 0.583585 45.9467 0.507465 45.9025 0.507465C45.8584 0.507465 45.8222 0.447667 45.8222 0.374593C45.8222 0.0296866 45.6663 0 43.8584 0H42.1242V7.95027ZM62.8648 1.18408V2.36818H73.235H83.6054V1.18408V0H73.235H62.8648V1.18408ZM92.3879 0.126528C92.3326 0.192583 92.2873 0.289255 92.2873 0.341354C92.2873 0.393538 92.1428 0.582399 91.966 0.761196C91.7889 0.939992 91.6444 1.13105 91.6444 1.18578C91.6444 1.24058 91.5359 1.39206 91.4032 1.52239C91.2705 1.65273 91.1619 1.8042 91.1619 1.85901C91.1619 1.91373 91.0172 2.10479 90.8404 2.28358C90.6635 2.46239 90.5188 2.65268 90.5188 2.70647C90.5188 2.76026 90.3743 2.95057 90.1974 3.12936C90.0204 3.30816 89.8758 3.49923 89.8758 3.55395C89.8758 3.60874 89.7673 3.76023 89.6346 3.89056C89.5019 4.02089 89.3934 4.17238 89.3934 4.22719C89.3934 4.28191 89.2486 4.47296 89.0718 4.65176C88.895 4.83056 88.7502 5.02086 88.7502 5.07465C88.7502 5.12843 88.6057 5.31873 88.4288 5.49753C88.2518 5.67633 88.1073 5.86738 88.1073 5.9221C88.1073 5.97692 87.9987 6.12838 87.866 6.25873C87.7333 6.38906 87.6248 6.54053 87.6248 6.59534C87.6248 6.65006 87.48 6.84113 87.3032 7.01991C87.1264 7.19872 86.9816 7.39663 86.9816 7.45981C86.9816 7.52299 86.9095 7.62947 86.821 7.69655C86.5679 7.88853 86.6232 8.1799 86.9816 8.54232C87.1587 8.72112 87.3032 8.91142 87.3032 8.9652C87.3032 9.01899 87.448 9.20929 87.6248 9.38809C87.8016 9.56689 87.9464 9.75794 87.9464 9.81266C87.9464 9.86747 88.0549 10.019 88.1876 10.1493C88.3203 10.2796 88.4288 10.4311 88.4288 10.4859C88.4288 10.5406 88.5734 10.7317 88.7502 10.9105C88.9273 11.0893 89.0718 11.2796 89.0718 11.3334C89.0718 11.3872 89.2165 11.5775 89.3934 11.7563C89.5702 11.935 89.7149 12.1261 89.7149 12.1808C89.7149 12.2357 89.8235 12.3871 89.9562 12.5174C90.0889 12.6478 90.1974 12.7993 90.1974 12.8541C90.1974 12.9088 90.3419 13.0998 90.5188 13.2786C90.6958 13.4575 90.8404 13.6477 90.8404 13.7015C90.8404 13.7553 90.9851 13.9456 91.1619 14.1244C91.3388 14.3032 91.4835 14.4943 91.4835 14.549C91.4835 14.6038 91.5921 14.7553 91.7247 14.8856C91.8574 15.0159 91.966 15.1657 91.966 15.2184C91.966 15.271 92.0914 15.4461 92.2446 15.6073L92.5231 15.9005H94.0131C95.7093 15.9005 95.7478 15.881 95.1816 15.3085C95.0047 15.1297 94.86 14.9387 94.86 14.8839C94.86 14.8291 94.7514 14.6777 94.6187 14.5473C94.4861 14.417 94.3775 14.2655 94.3775 14.2107C94.3775 14.156 94.233 13.9649 94.0559 13.7861C93.8791 13.6073 93.7346 13.417 93.7346 13.3632C93.7346 13.3094 93.5898 13.1191 93.413 12.9403C93.2362 12.7615 93.0914 12.5705 93.0914 12.5158C93.0914 12.4609 92.9828 12.3095 92.8502 12.1791C92.7175 12.0488 92.6089 11.8973 92.6089 11.8425C92.6089 11.7878 92.4644 11.5968 92.2873 11.4179C92.1105 11.2391 91.966 11.0488 91.966 10.9951C91.966 10.9413 91.8213 10.751 91.6444 10.5722C91.4676 10.3934 91.3228 10.2023 91.3228 10.1476C91.3228 10.0928 91.2143 9.9413 91.0816 9.81098C90.9489 9.68065 90.8404 9.52916 90.8404 9.47437C90.8404 9.41965 90.6958 9.22858 90.5188 9.04977C90.3419 8.87099 90.1974 8.67992 90.1974 8.6252C90.1974 8.57039 90.0798 8.40928 89.9362 8.26709C89.7709 8.10379 89.7118 7.99535 89.7753 7.97244C89.8306 7.95246 89.8758 7.87932 89.8758 7.80971C89.8758 7.74019 90.0204 7.53703 90.1974 7.35823C90.3743 7.17943 90.5188 6.98838 90.5188 6.93366C90.5188 6.87885 90.6273 6.72738 90.76 6.59703C90.8927 6.4667 91.0013 6.31523 91.0013 6.26042C91.0013 6.2057 91.146 6.01463 91.3228 5.83585C91.4997 5.65704 91.6444 5.46675 91.6444 5.41296C91.6444 5.35915 91.7889 5.16886 91.966 4.99006C92.1428 4.81127 92.2873 4.6202 92.2873 4.56548C92.2873 4.51069 92.3959 4.3592 92.5286 4.22888C92.6613 4.09855 92.7698 3.94706 92.7698 3.89225C92.7698 3.83752 92.9146 3.64648 93.0914 3.46767C93.2682 3.28887 93.413 3.09857 93.413 3.04479C93.413 2.991 93.5575 2.80071 93.7346 2.6219C93.9114 2.4431 94.0559 2.25204 94.0559 2.19732C94.0559 2.14251 94.1645 1.99104 94.2972 1.8607C94.4298 1.73037 94.5384 1.57889 94.5384 1.52409C94.5384 1.46936 94.6831 1.2783 94.86 1.09951C95.0368 0.92071 95.1816 0.729649 95.1816 0.674927C95.1816 0.620121 95.2901 0.468644 95.4226 0.33831C95.5553 0.207976 95.6638 0.0784879 95.6638 0.0506619C95.6638 0.0227513 94.9494 0.00143781 94.0762 0.00321395C92.8083 0.00575126 92.4683 0.0306171 92.3879 0.126528ZM100.97 7.95027V15.9005H106.597H112.224V14.7165V13.5324H107.883H103.542V11.2488V8.9652H106.838H110.134V7.78112V6.59703H106.838H103.542V4.4826V2.36818H107.722H111.903V1.18408V0H106.436H100.97V7.95027ZM119.298 7.95027V15.9005H120.504H121.71V9.89557V3.89056H121.917C122.141 3.89056 122.353 4.06378 122.353 4.24645C122.353 4.30929 122.426 4.41552 122.514 4.4826C122.603 4.54968 122.675 4.67221 122.675 4.75502C122.675 4.83775 122.711 4.90549 122.755 4.90549C122.799 4.90549 122.836 4.98162 122.836 5.07465C122.836 5.16767 122.872 5.2438 122.916 5.2438C122.96 5.2438 122.996 5.31991 122.996 5.41296C122.996 5.50599 123.032 5.5821 123.077 5.5821C123.121 5.5821 123.157 5.65823 123.157 5.75126C123.157 5.84431 123.193 5.92042 123.237 5.92042C123.282 5.92042 123.318 5.98816 123.318 6.07088C123.318 6.15369 123.39 6.27624 123.479 6.3433C123.567 6.41038 123.639 6.53294 123.639 6.61572C123.639 6.69845 123.676 6.76619 123.72 6.76619C123.764 6.76619 123.8 6.84232 123.8 6.93535C123.8 7.02837 123.836 7.1045 123.881 7.1045C123.925 7.1045 123.961 7.18061 123.961 7.27366C123.961 7.36669 123.997 7.4428 124.041 7.4428C124.086 7.4428 124.122 7.51893 124.122 7.61196C124.122 7.70501 124.158 7.78112 124.202 7.78112C124.246 7.78112 124.283 7.84886 124.283 7.93158C124.283 8.01439 124.355 8.13694 124.443 8.204C124.532 8.27108 124.604 8.39364 124.604 8.47643C124.604 8.55915 124.64 8.62689 124.684 8.62689C124.729 8.62689 124.765 8.70302 124.765 8.79605C124.765 8.88907 124.801 8.9652 124.845 8.9652C124.89 8.9652 124.926 9.04131 124.926 9.13436C124.926 9.22739 124.962 9.30352 125.006 9.30352C125.05 9.30352 125.086 9.37963 125.086 9.47266C125.086 9.56571 125.123 9.64182 125.167 9.64182C125.211 9.64182 125.247 9.70958 125.247 9.79228C125.247 9.87509 125.32 9.99764 125.408 10.0647C125.496 10.1318 125.569 10.2543 125.569 10.3371C125.569 10.4198 125.605 10.4876 125.649 10.4876C125.693 10.4876 125.73 10.5637 125.73 10.6567C125.73 10.7498 125.766 10.8259 125.81 10.8259C125.854 10.8259 125.89 10.902 125.89 10.9951C125.89 11.0881 125.927 11.1642 125.971 11.1642C126.015 11.1642 126.051 11.2403 126.051 11.3334C126.051 11.4264 126.087 11.5025 126.131 11.5025C126.176 11.5025 126.212 11.5703 126.212 11.653C126.212 11.7358 126.284 11.8583 126.373 11.9254C126.461 11.9925 126.534 12.115 126.534 12.1978C126.534 12.2805 126.57 12.3483 126.614 12.3483C126.658 12.3483 126.694 12.4244 126.694 12.5174C126.694 12.6105 126.73 12.6866 126.775 12.6866C126.819 12.6866 126.855 12.7627 126.855 12.8558C126.855 12.9488 126.891 13.0249 126.936 13.0249C126.98 13.0249 127.016 13.101 127.016 13.1941C127.016 13.2871 127.052 13.3632 127.096 13.3632C127.14 13.3632 127.177 13.431 127.177 13.5137C127.177 13.5965 127.249 13.719 127.337 13.7861C127.426 13.8532 127.498 13.9757 127.498 14.0585C127.498 14.1412 127.534 14.209 127.578 14.209C127.623 14.209 127.659 14.2851 127.659 14.3782C127.659 14.4712 127.695 14.5473 127.739 14.5473C127.784 14.5473 127.82 14.6234 127.82 14.7165C127.82 14.8095 127.856 14.8856 127.9 14.8856C127.944 14.8856 127.981 14.9617 127.981 15.0548C127.981 15.1478 128.017 15.2239 128.061 15.2239C128.105 15.2239 128.141 15.3 128.141 15.3931C128.141 15.4861 128.177 15.5622 128.222 15.5622C128.266 15.5622 128.302 15.6384 128.302 15.7314C128.302 15.8956 128.356 15.9005 130.151 15.9005H132V7.95027V0H130.794H129.588V6.08957V12.1791H129.382C129.149 12.1791 128.945 12.0042 128.945 11.8046C128.945 11.7315 128.909 11.6717 128.865 11.6717C128.821 11.6717 128.784 11.5956 128.784 11.5025C128.784 11.4095 128.748 11.3334 128.704 11.3334C128.66 11.3334 128.624 11.2572 128.624 11.1642C128.624 11.0712 128.587 10.9951 128.543 10.9951C128.499 10.9951 128.463 10.9189 128.463 10.8259C128.463 10.7329 128.427 10.6567 128.383 10.6567C128.338 10.6567 128.302 10.589 128.302 10.5063C128.302 10.4235 128.23 10.3009 128.141 10.2339C128.053 10.1668 127.981 10.0442 127.981 9.96144C127.981 9.87871 127.944 9.81098 127.9 9.81098C127.856 9.81098 127.82 9.73487 127.82 9.64182C127.82 9.54879 127.784 9.47266 127.739 9.47266C127.695 9.47266 127.659 9.39655 127.659 9.30352C127.659 9.21047 127.623 9.13436 127.578 9.13436C127.534 9.13436 127.498 9.05823 127.498 8.9652C127.498 8.87218 127.462 8.79605 127.418 8.79605C127.374 8.79605 127.337 8.7283 127.337 8.64558C127.337 8.56279 127.265 8.44024 127.177 8.37316C127.088 8.3061 127.016 8.18355 127.016 8.10074C127.016 8.01802 126.98 7.95027 126.936 7.95027C126.891 7.95027 126.855 7.87417 126.855 7.78112C126.855 7.68809 126.819 7.61196 126.775 7.61196C126.73 7.61196 126.694 7.53585 126.694 7.4428C126.694 7.34977 126.658 7.27366 126.614 7.27366C126.57 7.27366 126.534 7.19753 126.534 7.1045C126.534 7.01145 126.497 6.93535 126.453 6.93535C126.409 6.93535 126.373 6.8676 126.373 6.78488C126.373 6.70207 126.3 6.57954 126.212 6.51246C126.123 6.44538 126.051 6.32283 126.051 6.24004C126.051 6.15732 126.015 6.08957 125.971 6.08957C125.927 6.08957 125.89 6.01344 125.89 5.92042C125.89 5.82739 125.854 5.75126 125.81 5.75126C125.766 5.75126 125.73 5.67515 125.73 5.5821C125.73 5.48907 125.693 5.41296 125.649 5.41296C125.605 5.41296 125.569 5.33683 125.569 5.2438C125.569 5.15075 125.533 5.07465 125.489 5.07465C125.444 5.07465 125.408 5.0069 125.408 4.92418C125.408 4.84137 125.336 4.71882 125.247 4.65176C125.159 4.58468 125.086 4.46213 125.086 4.37934C125.086 4.29662 125.05 4.22888 125.006 4.22888C124.962 4.22888 124.926 4.15274 124.926 4.05972C124.926 3.96669 124.89 3.89056 124.845 3.89056C124.801 3.89056 124.765 3.81445 124.765 3.7214C124.765 3.62837 124.729 3.55224 124.684 3.55224C124.64 3.55224 124.604 3.47613 124.604 3.3831C124.604 3.29006 124.568 3.21395 124.524 3.21395C124.48 3.21395 124.443 3.14621 124.443 3.06348C124.443 2.98067 124.371 2.85812 124.283 2.79106C124.194 2.72398 124.122 2.60143 124.122 2.51864C124.122 2.43592 124.086 2.36818 124.041 2.36818C123.997 2.36818 123.961 2.29204 123.961 2.19901C123.961 2.10598 123.925 2.02986 123.881 2.02986C123.836 2.02986 123.8 1.95374 123.8 1.8607C123.8 1.76767 123.764 1.69155 123.72 1.69155C123.676 1.69155 123.639 1.61543 123.639 1.52239C123.639 1.42936 123.603 1.35324 123.559 1.35324C123.515 1.35324 123.479 1.28549 123.479 1.20278C123.479 1.11997 123.406 0.99742 123.318 0.930352C123.23 0.863281 123.157 0.74073 123.157 0.657927C123.157 0.57521 123.121 0.507465 123.077 0.507465C123.032 0.507465 122.996 0.447667 122.996 0.374593C122.996 0.0296866 122.841 0 121.033 0H119.298V7.95027ZM28.8254 2.65818C28.8887 2.72457 28.9403 2.87681 28.9403 2.9965C28.9403 3.11609 28.9765 3.21395 29.0207 3.21395C29.0648 3.21395 29.101 3.32811 29.101 3.46767C29.101 3.60724 29.1372 3.7214 29.1816 3.7214C29.2257 3.7214 29.2619 3.83559 29.2619 3.97513C29.2619 4.11469 29.2981 4.22888 29.3422 4.22888C29.3864 4.22888 29.4226 4.34304 29.4226 4.4826C29.4226 4.62217 29.4588 4.73633 29.5031 4.73633C29.5473 4.73633 29.5835 4.85051 29.5835 4.99006C29.5835 5.12962 29.6197 5.2438 29.6638 5.2438C29.708 5.2438 29.7442 5.35797 29.7442 5.49753C29.7442 5.63707 29.7803 5.75126 29.8247 5.75126C29.8689 5.75126 29.9051 5.86544 29.9051 6.00498C29.9051 6.14455 29.9412 6.25873 29.9854 6.25873C30.0295 6.25873 30.0657 6.41097 30.0657 6.59703C30.0657 6.7831 30.1019 6.93535 30.1461 6.93535C30.1905 6.93535 30.2266 7.04953 30.2266 7.18907C30.2266 7.32864 30.2628 7.4428 30.307 7.4428C30.3511 7.4428 30.3873 7.55698 30.3873 7.69655C30.3873 7.83609 30.4235 7.95027 30.4676 7.95027C30.512 7.95027 30.5482 8.06446 30.5482 8.204C30.5482 8.34356 30.5842 8.45773 30.6286 8.45773C30.6727 8.45773 30.7089 8.57191 30.7089 8.71148V8.9652H28.3775C26.0998 8.9652 26.0463 8.9613 26.0463 8.79605C26.0463 8.70302 26.0825 8.62689 26.1267 8.62689C26.1708 8.62689 26.207 8.47465 26.207 8.28859C26.207 8.10252 26.2432 7.95027 26.2873 7.95027C26.3317 7.95027 26.3679 7.83609 26.3679 7.69655C26.3679 7.55698 26.4041 7.4428 26.4482 7.4428C26.4924 7.4428 26.5286 7.32864 26.5286 7.18907C26.5286 7.04953 26.5648 6.93535 26.6089 6.93535C26.6533 6.93535 26.6895 6.82116 26.6895 6.68162C26.6895 6.54206 26.7257 6.42789 26.7698 6.42789C26.814 6.42789 26.8502 6.31371 26.8502 6.17414C26.8502 6.0346 26.8864 5.92042 26.9305 5.92042C26.9749 5.92042 27.0111 5.80623 27.0111 5.66669C27.0111 5.52713 27.047 5.41296 27.0914 5.41296C27.1356 5.41296 27.1717 5.26072 27.1717 5.07465C27.1717 4.88857 27.2079 4.73633 27.2521 4.73633C27.2962 4.73633 27.3324 4.62217 27.3324 4.4826C27.3324 4.34304 27.3686 4.22888 27.413 4.22888C27.4571 4.22888 27.4933 4.11469 27.4933 3.97513C27.4933 3.83559 27.5295 3.7214 27.5737 3.7214C27.6178 3.7214 27.654 3.60724 27.654 3.46767C27.654 3.32811 27.6902 3.21395 27.7346 3.21395C27.7787 3.21395 27.8149 3.11718 27.8149 2.99894C27.8149 2.88071 27.8602 2.72991 27.9153 2.66386C28.0477 2.50578 28.6768 2.50179 28.8254 2.65818ZM81.033 5.83585V6.76619H71.9489H62.8648V7.95027V9.13436H71.9489H81.033V10.0647V10.9951H82.3191H83.6054V7.95027V4.90549H82.3191H81.033V5.83585ZM62.8648 14.7165V15.9005H71.9489C77.9512 15.9005 81.033 15.9292 81.033 15.9851C81.033 16.038 81.5152 16.0697 82.3191 16.0697H83.6054V14.8011V13.5324H73.235H62.8648V14.7165ZM29.9051 30.9189C29.9051 33.2672 29.9249 33.7793 30.0198 33.8792C30.1115 33.9758 30.4517 34 31.708 34C32.7035 34 33.2813 33.969 33.2813 33.9156C33.2813 33.8691 33.3899 33.831 33.5225 33.831C33.6552 33.831 33.7638 33.793 33.7638 33.7465C33.7638 33.6999 33.8195 33.6619 33.8878 33.6619C33.9563 33.6619 34.1008 33.5684 34.2094 33.4542C34.318 33.3399 34.4067 33.1878 34.4067 33.1158C34.4067 33.044 34.4429 32.9851 34.4873 32.9851C34.5314 32.9851 34.5676 32.8709 34.5676 32.7314C34.5676 32.5918 34.6038 32.4778 34.648 32.4778C34.6921 32.4778 34.7283 32.4017 34.7283 32.3086C34.7283 32.2156 34.6921 32.1395 34.648 32.1395C34.6038 32.1395 34.5676 32.0252 34.5676 31.8857C34.5676 31.7461 34.5314 31.6319 34.4873 31.6319C34.4429 31.6319 34.4067 31.5722 34.4067 31.499C34.4067 31.426 34.355 31.3118 34.292 31.2454C34.2287 31.1789 34.1204 31.1244 34.0508 31.1244C33.9641 31.1244 33.9245 31.045 33.9245 30.8708C33.9245 30.6734 33.9602 30.6171 34.0854 30.6171C34.1923 30.6171 34.246 30.5605 34.246 30.4479C34.246 30.3548 34.2822 30.2787 34.3264 30.2787C34.3708 30.2787 34.4067 30.1645 34.4067 30.0249C34.4067 29.8854 34.4429 29.7711 34.4873 29.7711C34.5314 29.7711 34.5676 29.6952 34.5676 29.6022C34.5676 29.5089 34.5314 29.433 34.4873 29.433C34.4429 29.433 34.4067 29.3188 34.4067 29.1792C34.4067 29.0397 34.3708 28.9255 34.3264 28.9255C34.2822 28.9255 34.246 28.8666 34.246 28.7948C34.246 28.5892 33.8723 28.2487 33.6468 28.2487C33.5341 28.2487 33.4422 28.2109 33.4422 28.1644C33.4422 28.1106 32.799 28.0798 31.6736 28.0798H29.9051V30.9189ZM46.3045 31.04V34H46.9476H47.5908V32.816V31.6319H48.2797C49.0355 31.6319 49.1984 31.7135 49.1984 32.0911C49.1984 32.2106 49.2346 32.3086 49.279 32.3086C49.3232 32.3086 49.3594 32.4226 49.3594 32.5622C49.3594 32.702 49.3955 32.816 49.4397 32.816C49.4838 32.816 49.52 32.8921 49.52 32.9851C49.52 33.0782 49.5562 33.1543 49.6006 33.1543C49.6447 33.1543 49.6809 33.2686 49.6809 33.4081C49.6809 33.5476 49.7171 33.6619 49.7613 33.6619C49.8054 33.6619 49.8416 33.738 49.8416 33.831C49.8416 33.984 49.8953 34 50.4044 34H50.967V33.7465C50.967 33.6069 50.9308 33.4927 50.8867 33.4927C50.8425 33.4927 50.8063 33.4165 50.8063 33.3235C50.8063 33.2305 50.7702 33.1543 50.726 33.1543C50.6816 33.1543 50.6454 33.0401 50.6454 32.9006C50.6454 32.761 50.6095 32.6468 50.5651 32.6468C50.521 32.6468 50.4848 32.5328 50.4848 32.3932C50.4848 32.2537 50.4486 32.1395 50.4044 32.1395C50.3603 32.1395 50.3241 32.0284 50.3241 31.8928C50.3241 31.7571 50.2788 31.6301 50.2235 31.6107C50.1625 31.5891 50.2574 31.4393 50.4647 31.2297C50.6525 31.0396 50.8063 30.8241 50.8063 30.7504C50.8063 30.677 50.8425 30.6171 50.8867 30.6171C50.9345 30.6171 50.967 30.307 50.967 29.8557C50.967 29.4047 50.9345 29.0947 50.8867 29.0947C50.8425 29.0947 50.8063 29.0363 50.8063 28.9649C50.8063 28.7966 50.2856 28.2487 50.1256 28.2487C50.0578 28.2487 50.0025 28.2109 50.0025 28.1644C50.0025 28.1103 49.3325 28.0798 48.1534 28.0798H46.3045V31.04ZM63.9902 28.3333C63.9902 28.4729 63.954 28.5871 63.9099 28.5871C63.8657 28.5871 63.8295 28.7013 63.8295 28.8409C63.8295 28.9804 63.7933 29.0947 63.7492 29.0947C63.7048 29.0947 63.6686 29.2089 63.6686 29.3484C63.6686 29.488 63.6324 29.6022 63.5883 29.6022C63.5441 29.6022 63.5079 29.7162 63.5079 29.8557C63.5079 29.9953 63.4717 30.1095 63.4276 30.1095C63.3832 30.1095 63.347 30.2237 63.347 30.3633C63.347 30.5028 63.3111 30.6171 63.2667 30.6171C63.2225 30.6171 63.1864 30.7313 63.1864 30.8708C63.1864 31.0104 63.1502 31.1244 63.106 31.1244C63.0619 31.1244 63.0257 31.2386 63.0257 31.3781C63.0257 31.5177 62.9895 31.6319 62.9451 31.6319C62.901 31.6319 62.8648 31.7842 62.8648 31.9703C62.8648 32.1563 62.8286 32.3086 62.7844 32.3086C62.7403 32.3086 62.7041 32.4226 62.7041 32.5622C62.7041 32.702 62.6679 32.816 62.6235 32.816C62.5794 32.816 62.5432 32.9302 62.5432 33.0697C62.5432 33.2093 62.507 33.3235 62.4629 33.3235C62.4187 33.3235 62.3825 33.4377 62.3825 33.5773C62.3825 33.7168 62.3463 33.831 62.3022 33.831C62.2578 33.831 62.2216 33.8691 62.2216 33.9156C62.2216 33.9633 62.4512 34 62.7498 34C63.3356 34 63.5079 33.8956 63.5079 33.541C63.5079 33.4213 63.5441 33.3235 63.5883 33.3235C63.6324 33.3235 63.6686 33.2093 63.6686 33.0697C63.6686 32.9302 63.7048 32.816 63.7492 32.816C63.7933 32.816 63.8295 32.702 63.8295 32.5622V32.3086H64.9549C66.0269 32.3086 66.0803 32.3166 66.0803 32.4778C66.0803 32.5709 66.1165 32.6468 66.1607 32.6468C66.2051 32.6468 66.2412 32.7991 66.2412 32.9851C66.2412 33.1712 66.2774 33.3235 66.3216 33.3235C66.3657 33.3235 66.4019 33.4213 66.4019 33.541C66.4019 33.8956 66.5742 34 67.16 34C67.6345 34 67.6882 33.9829 67.6882 33.831C67.6882 33.738 67.652 33.6619 67.6079 33.6619C67.5635 33.6619 67.5273 33.5476 67.5273 33.4081C67.5273 33.2686 67.4911 33.1543 67.447 33.1543C67.4028 33.1543 67.3667 33.0401 67.3667 32.9006C67.3667 32.761 67.3305 32.6468 67.2863 32.6468C67.2419 32.6468 67.2058 32.5328 67.2058 32.3932C67.2058 32.2537 67.1696 32.1395 67.1254 32.1395C67.0813 32.1395 67.0451 32.0252 67.0451 31.8857C67.0451 31.7461 67.0089 31.6319 66.9647 31.6319C66.9204 31.6319 66.8842 31.5177 66.8842 31.3781C66.8842 31.2386 66.8482 31.1244 66.8038 31.1244C66.7597 31.1244 66.7235 30.9723 66.7235 30.7862C66.7235 30.6002 66.6873 30.4479 66.6432 30.4479C66.599 30.4479 66.5628 30.3336 66.5628 30.1941C66.5628 30.0546 66.5266 29.9403 66.4823 29.9403C66.4381 29.9403 66.4019 29.8263 66.4019 29.6866C66.4019 29.547 66.3657 29.433 66.3216 29.433C66.2774 29.433 66.2412 29.3188 66.2412 29.1792C66.2412 29.0397 66.2051 28.9255 66.1607 28.9255C66.1165 28.9255 66.0803 28.8112 66.0803 28.6717C66.0803 28.5322 66.0442 28.4179 66 28.4179C65.9558 28.4179 65.9197 28.3418 65.9197 28.2487C65.9197 28.0891 65.866 28.0798 64.9549 28.0798H63.9902V28.3333ZM79.1035 31.04V34H79.6663H80.2289V31.9703C80.2289 29.9969 80.2335 29.9403 80.3898 29.9403C80.497 29.9403 80.5505 29.9969 80.5505 30.1095C80.5505 30.2025 80.5867 30.2787 80.6308 30.2787C80.6752 30.2787 80.7114 30.3548 80.7114 30.4479C80.7114 30.5409 80.7476 30.6171 80.7917 30.6171C80.8359 30.6171 80.8721 30.6932 80.8721 30.7862C80.8721 30.8793 80.9083 30.9554 80.9524 30.9554C80.9968 30.9554 81.033 31.0313 81.033 31.1244C81.033 31.2176 81.0692 31.2936 81.1133 31.2936C81.1575 31.2936 81.1937 31.3613 81.1937 31.444C81.1937 31.5268 81.266 31.6495 81.3543 31.7165C81.4429 31.7835 81.5152 31.9062 81.5152 31.989C81.5152 32.0717 81.5514 32.1395 81.5956 32.1395C81.6397 32.1395 81.6759 32.2156 81.6759 32.3086C81.6759 32.4017 81.7121 32.4778 81.7565 32.4778C81.8006 32.4778 81.8368 32.5537 81.8368 32.6468C81.8368 32.7398 81.873 32.816 81.9172 32.816C81.9613 32.816 81.9975 32.8921 81.9975 32.9851C81.9975 33.0782 82.0337 33.1543 82.0781 33.1543C82.1222 33.1543 82.1584 33.222 82.1584 33.3048C82.1584 33.3876 82.2308 33.5102 82.3191 33.5773C82.4076 33.6443 82.48 33.7668 82.48 33.8497C82.48 33.9838 82.5667 34 83.2838 34H84.0876V31.04V28.0798H83.525H82.9622V30.1095C82.9622 31.2261 82.9415 32.1395 82.9163 32.1395C82.8284 32.1395 82.6407 31.8971 82.6407 31.7835C82.6407 31.7206 82.5683 31.6144 82.48 31.5473C82.3914 31.4803 82.3191 31.3579 82.3191 31.2749C82.3191 31.1923 82.2829 31.1244 82.2387 31.1244C82.1946 31.1244 82.1584 31.0484 82.1584 30.9554C82.1584 30.8624 82.1222 30.7862 82.0781 30.7862C82.0337 30.7862 81.9975 30.7101 81.9975 30.6171C81.9975 30.524 81.9613 30.4479 81.9172 30.4479C81.873 30.4479 81.8368 30.3717 81.8368 30.2787C81.8368 30.1857 81.8006 30.1095 81.7565 30.1095C81.7121 30.1095 81.6759 30.0334 81.6759 29.9403C81.6759 29.8473 81.6397 29.7711 81.5956 29.7711C81.5514 29.7711 81.5152 29.7034 81.5152 29.6207C81.5152 29.5379 81.4429 29.4155 81.3543 29.3484C81.266 29.2814 81.1937 29.1587 81.1937 29.076C81.1937 28.9932 81.1575 28.9255 81.1133 28.9255C81.0692 28.9255 81.033 28.8493 81.033 28.7563C81.033 28.6633 80.9968 28.5871 80.9524 28.5871C80.9083 28.5871 80.8721 28.5274 80.8721 28.4542C80.8721 28.1571 80.6654 28.0798 79.873 28.0798H79.1035V31.04ZM95.9854 31.04V34H97.5127C98.4775 34 99.0403 33.969 99.0403 33.9156C99.0403 33.8691 99.1486 33.831 99.2813 33.831C99.414 33.831 99.5225 33.793 99.5225 33.7465C99.5225 33.6999 99.587 33.6619 99.6655 33.6619C99.7442 33.6619 99.8607 33.5857 99.9245 33.4927C99.9882 33.3997 100.105 33.3235 100.183 33.3235C100.267 33.3235 100.326 33.2608 100.326 33.173C100.326 33.0903 100.399 32.9676 100.487 32.9006C100.576 32.8335 100.648 32.7111 100.648 32.6281C100.648 32.5455 100.684 32.4778 100.728 32.4778C100.773 32.4778 100.809 32.3636 100.809 32.2241C100.809 32.0845 100.845 31.9703 100.889 31.9703C100.938 31.9703 100.97 31.6039 100.97 31.04C100.97 30.4759 100.938 30.1095 100.889 30.1095C100.845 30.1095 100.809 29.9953 100.809 29.8557C100.809 29.7162 100.773 29.6022 100.728 29.6022C100.684 29.6022 100.648 29.526 100.648 29.433C100.648 29.34 100.612 29.2638 100.568 29.2638C100.523 29.2638 100.487 29.2055 100.487 29.1341C100.487 28.9658 99.9666 28.4179 99.8066 28.4179C99.7387 28.4179 99.6832 28.3798 99.6832 28.3333C99.6832 28.2868 99.6111 28.2487 99.5225 28.2487C99.434 28.2487 99.3619 28.2109 99.3619 28.1644C99.3619 28.1106 98.7453 28.0798 97.6736 28.0798H95.9854V31.04ZM33.1666 29.2155C33.2296 29.2818 33.2813 29.4939 33.2813 29.6866C33.2813 30.0498 33.1438 30.2787 32.9254 30.2787C32.8559 30.2787 32.799 30.3168 32.799 30.3633C32.799 30.4141 32.4775 30.4479 31.9952 30.4479H31.1911V29.7711V29.0947H32.1215C32.8204 29.0947 33.0803 29.1247 33.1666 29.2155ZM49.3594 29.1792C49.3594 29.2258 49.4162 29.2638 49.4857 29.2638C49.876 29.2638 49.985 30.0509 49.6443 30.4093C49.4577 30.6059 49.3971 30.6171 48.5189 30.6171H47.5908V29.8557V29.0947H48.475C49.0109 29.0947 49.3594 29.1279 49.3594 29.1792ZM98.7187 29.1792C98.7187 29.2258 98.7911 29.2638 98.8794 29.2638C98.9679 29.2638 99.0403 29.3019 99.0403 29.3484C99.0403 29.3949 99.097 29.433 99.1666 29.433C99.3289 29.433 99.5225 29.6366 99.5225 29.8076C99.5225 29.8806 99.5587 29.9403 99.6029 29.9403C99.647 29.9403 99.6832 30.0926 99.6832 30.2787C99.6832 30.4647 99.7194 30.6171 99.7638 30.6171C99.8079 30.6171 99.8441 30.8072 99.8441 31.04C99.8441 31.2726 99.8079 31.4627 99.7638 31.4627C99.7194 31.4627 99.6832 31.577 99.6832 31.7165C99.6832 31.856 99.647 31.9703 99.6029 31.9703C99.5587 31.9703 99.5225 32.0291 99.5225 32.1009C99.5225 32.2701 99.1645 32.6468 99.0036 32.6468C98.9354 32.6468 98.8794 32.6849 98.8794 32.7314C98.8794 32.7827 98.5312 32.816 97.9952 32.816H97.1108V30.9554V29.0947H97.9146C98.3971 29.0947 98.7187 29.1284 98.7187 29.1792ZM65.1616 29.3847C65.2248 29.451 65.2765 29.6033 65.2765 29.723C65.2765 29.8425 65.3127 29.9403 65.3568 29.9403C65.401 29.9403 65.4372 30.0546 65.4372 30.1941C65.4372 30.3336 65.4734 30.4479 65.5177 30.4479C65.5619 30.4479 65.5981 30.6002 65.5981 30.7862C65.5981 30.9723 65.6343 31.1244 65.6784 31.1244C65.7226 31.1244 65.7588 31.1625 65.7588 31.209C65.7588 31.2598 65.4372 31.2936 64.9549 31.2936C64.2046 31.2936 64.1511 31.2824 64.1511 31.1244C64.1511 31.0313 64.1873 30.9554 64.2314 30.9554C64.2756 30.9554 64.3118 30.8412 64.3118 30.7016C64.3118 30.5621 64.348 30.4479 64.3921 30.4479C64.4365 30.4479 64.4727 30.3336 64.4727 30.1941C64.4727 30.0546 64.5089 29.9403 64.553 29.9403C64.5972 29.9403 64.6333 29.8437 64.6333 29.7253C64.6333 29.3336 64.9308 29.1416 65.1616 29.3847ZM33.2449 31.6705C33.5856 32.0289 33.4763 32.816 33.086 32.816C33.0166 32.816 32.9597 32.854 32.9597 32.9006C32.9597 32.9519 32.6115 32.9851 32.0755 32.9851H31.1911V32.2241V31.4627H32.1192C32.9975 31.4627 33.058 31.4739 33.2449 31.6705Z" fill="#181818"/>
</svg>